<svg width="113" height="38" viewBox="0 0 113 38" fill="none" xmlns="http://www.w3.org/2000/svg">
<path d="M96.4082 20.85C95.2082 20.85 94.1582 20.4167 93.2582 19.55C92.3582 18.6834 91.9082 17.5167 91.9082 16.05V13.05H97.1582V13.75C97.1582 14.45 97.2749 14.8667 97.5082 15C97.7749 15.1001 98.2249 15.1501 98.8582 15.1501H112.708L100.608 32.75L99.3082 31.3H112.558V37H90.4082L102.858 18.8501L103.908 20.85H96.4082Z" fill="#F8F4F2"/>
<path d="M78.7994 15.1501H85.7994V37.0001H78.7994V15.1501ZM78.6494 7.4001C78.6494 6.36677 79.0494 5.51677 79.8494 4.8501C80.6828 4.18343 81.5661 3.8501 82.4994 3.8501C83.4328 3.8501 84.2827 4.18343 85.0494 4.8501C85.8494 5.51677 86.2494 6.36677 86.2494 7.4001C86.2494 8.43343 85.8494 9.28343 85.0494 9.9501C84.2827 10.5834 83.4328 10.9001 82.4994 10.9001C81.5661 10.9001 80.6828 10.5834 79.8494 9.9501C79.0494 9.28343 78.6494 8.43343 78.6494 7.4001Z" fill="#F8F4F2"/>
<path d="M64.591 15.15L65.241 21.15L65.091 20.25C65.7244 18.95 66.591 17.85 67.691 16.95C68.791 16.0167 69.8744 15.3 70.941 14.8C72.041 14.3 72.8743 14.05 73.441 14.05L73.091 21.05C71.4577 20.85 70.0577 21.1167 68.891 21.85C67.7243 22.5834 66.8244 23.55 66.191 24.75C65.5577 25.95 65.241 27.1834 65.241 28.4501V37H58.291V15.15H64.591Z" fill="#F8F4F2"/>
<path d="M36.7789 37.6C34.7456 37.6 32.8956 37.2001 31.2289 36.4001C29.5956 35.5667 28.2956 34.3 27.3289 32.6C26.3622 30.9 25.8789 28.7334 25.8789 26.1C25.8789 23.6334 26.3789 21.5 27.3789 19.7C28.3789 17.9 29.6956 16.5167 31.3289 15.55C32.9622 14.55 34.6956 14.05 36.5289 14.05C38.6956 14.05 40.3289 14.4167 41.4289 15.15C42.5622 15.85 43.4956 16.6334 44.2289 17.5L43.9289 18.35L44.5789 15.15H51.0789V37H44.0789V32.25L44.6289 33.75C44.5622 33.75 44.3622 33.95 44.0289 34.35C43.6956 34.7167 43.1956 35.1667 42.5289 35.7001C41.8956 36.2001 41.0956 36.6334 40.1289 37C39.1956 37.4 38.0789 37.6 36.7789 37.6ZM38.7789 31.9001C39.6122 31.9001 40.3622 31.7834 41.0289 31.55C41.6956 31.2834 42.2789 30.9167 42.7789 30.45C43.2789 29.95 43.7122 29.3334 44.0789 28.6V23.25C43.8122 22.5167 43.4122 21.9 42.8789 21.4C42.3456 20.8667 41.7122 20.4667 40.9789 20.2C40.2456 19.9 39.4289 19.75 38.5289 19.75C37.5289 19.75 36.5956 20.0167 35.7289 20.55C34.8956 21.05 34.2289 21.75 33.7289 22.65C33.2289 23.55 32.9789 24.5834 32.9789 25.75C32.9789 26.9167 33.2456 27.9667 33.7789 28.9C34.3122 29.8334 35.0122 30.5667 35.8789 31.1C36.7789 31.6334 37.7456 31.9001 38.7789 31.9001Z" fill="#F8F4F2"/>
<path d="M0.75 0.199951H23.75V7.19995H8V15.55H21.65V22.55H8V37H0.75V0.199951Z" fill="#F8F4F2"/>
</svg>
